<svg xmlns="http://www.w3.org/2000/svg" width="100%" height="100%" viewBox="0 0 48.017 52.449" fit="" preserveAspectRatio="xMidYMid meet" focusable="false">
  <g id="Group_10090" data-name="Group 10090" transform="translate(22873 23805.376)">
    <path id="Path_9618" data-name="Path 9618" d="M33.769,31.15c0-4.338-2.735-7.538-6.807-7.963h-.017c-.831-.056-4.463-.048-4.616-.048h-9.8V56.3H24.717a25.482,25.482,0,0,0,5.5-.5,8.513,8.513,0,0,0,4.975-4.44,10.183,10.183,0,0,0,.475-7.554,8.321,8.321,0,0,0-5.421-5.578,8.1,8.1,0,0,0,3.524-7.081m-19.6,8.233H24.822c.363,0,.73-.008,1.086-.017a17.073,17.073,0,0,1,2.47.056c3.744.468,6.242,3.536,6.215,7.634-.028,4.2-2.516,7.162-6.337,7.546-.505.051-1.684.124-1.828.132L14.163,54.69Zm6.026-1.628H14.164V24.767H24.169c.012,0,1.2-.021,2.452.044,3.424.285,5.627,2.824,5.613,6.47-.017,3.582-2.273,6.154-5.613,6.4-2.047.149-6.38.079-6.43.079" transform="translate(-22878.496 -23817.002)" fill="#121432"></path>
    <path id="Path_9619" data-name="Path 9619" d="M41.954,51.151v-.87a.737.737,0,0,0-1.473,0v.87A4.352,4.352,0,0,1,36.135,55.5H5.818a4.352,4.352,0,0,1-4.345-4.348V12.767A4.351,4.351,0,0,1,5.818,8.419H36.135a4.351,4.351,0,0,1,4.346,4.347v2.021a.737.737,0,1,0,1.473,0V12.767a5.826,5.826,0,0,0-5.819-5.821H5.818A5.826,5.826,0,0,0,0,12.767V51.151A5.826,5.826,0,0,0,5.818,56.97H36.135a5.826,5.826,0,0,0,5.819-5.819" transform="translate(-22873 -23809.896)" fill="#121432"></path>
    <path id="Path_9620" data-name="Path 9620" d="M72.427,29.948H68.95V24.289H67.123v5.659c-1.159-.031-2.434.059-3.521-.043V24.158H61.865c-.051.006-.046.068-.044.131v7.486H74.253V24.158h-1.78c-.03,1.915.062,3.947-.044,5.79" transform="translate(-22900.121 -23817.447)" fill="#121432"></path>
    <path id="Path_9621" data-name="Path 9621" d="M61.743,49.016H74.22v-1.78H65.575l8.645-6.108V39.79H61.743v1.784h8.732l-8.732,6.148Z" transform="translate(-22900.088 -23824.305)" fill="#121432"></path>
    <path id="Path_9622" data-name="Path 9622" d="M67.609,70.906a6.422,6.422,0,0,0,6.685-5.838V64.044A6.335,6.335,0,0,0,72.2,59.9a6.181,6.181,0,0,0-4.547-1.692,6.366,6.366,0,0,0-4.322,1.915,6.18,6.18,0,0,0-1.825,4.411,6.259,6.259,0,0,0,6.1,6.373m-2.941-9.581a4.387,4.387,0,0,1,2.764-1.247,4.621,4.621,0,0,1,3.7,1.247,4.691,4.691,0,0,1,1.335,3.611,4.585,4.585,0,1,1-9.135-.8,4.365,4.365,0,0,1,1.337-2.807" transform="translate(-22899.984 -23832.381)" fill="#121432"></path>
    <path id="Path_9623" data-name="Path 9623" d="M77.231,4.957a2.332,2.332,0,0,1,3.495-2.023,2.273,2.273,0,0,1,.859.855,2.334,2.334,0,1,1-4.353,1.17m.289,0a1.991,1.991,0,0,0,.275,1.022,2.044,2.044,0,0,0,3.538,0,1.99,1.99,0,0,0,.276-1.024,2.015,2.015,0,0,0-.265-1.01,2.045,2.045,0,0,0-2.8-.764,2.066,2.066,0,0,0-1.026,1.773m2.876-.58a.786.786,0,0,1-.119.433.8.8,0,0,1-.343.294l.735,1.219h-.376L79.642,5.2h-.52V6.321h-.314V3.592h.655a1.093,1.093,0,0,1,.689.193.708.708,0,0,1,.245.593m-1.275.58h.347a.642.642,0,0,0,.443-.144.534.534,0,0,0,.162-.42q0-.534-.611-.534h-.341Z" transform="translate(-22906.881 -23808)" fill="#121432"></path>
  </g>
</svg>
