<svg xmlns="http://www.w3.org/2000/svg" xmlns:xlink="http://www.w3.org/1999/xlink" width="auto" height="22" viewBox="0 0 15.258 20">
  <defs>
    <linearGradient id="linear-gradient" x1="-0.012" y1="0.406" x2="1.011" y2="0.404" gradientUnits="objectBoundingBox">
      <stop offset="0" stop-color="#5c7c89"/>
      <stop offset="1" stop-color="#5c7c89"/>
    </linearGradient>
  </defs>
  <g id="Mouse_Pointer" data-name="Mouse Pointer" transform="translate(15.258) rotate(90)">
    <path id="Background_Path" data-name="Background Path" d="M12.126,0A18.9,18.9,0,0,0,7.648.266,1.472,1.472,0,0,0,6.816,1.9c.125.456-.3.852-.483,1a1.863,1.863,0,0,0-.553.692,1.5,1.5,0,0,0-.094,1.074A.978.978,0,0,1,5.4,5.709a1.727,1.727,0,0,0-.491,1.956.249.249,0,0,1-.239.322L1.393,7.981A1.443,1.443,0,0,0,0,9.45c0,.934.989,1.144,1.335,1.144l9.535.02a.251.251,0,0,1,.008.5,5.64,5.64,0,0,0-1.425.69c-1.121.648-1.793,1.3-1.417,2.356a1.061,1.061,0,0,0,1.054.6,1.422,1.422,0,0,0,.7-.157,14.2,14.2,0,0,1,2.686-1.325A17.017,17.017,0,0,0,15.6,11.732a2.3,2.3,0,0,0,.556-.508,4.905,4.905,0,0,1,2.743-1.8l.216-.05a.416.416,0,0,0,.322-.4L19.5,2.344a.419.419,0,0,0-.3-.408.182.182,0,0,1-.042-.017C19.109,1.9,15.193.005,12.445,0h-.319Z" transform="translate(0.251 0.249)" fill="url(#linear-gradient)"/>
    <path id="Border_Path" data-name="Border Path" d="M9.341,14.757a1.2,1.2,0,0,0,.563-.115,14.277,14.277,0,0,1,2.732-1.348,16.934,16.934,0,0,0,3.081-1.524,2.035,2.035,0,0,0,.5-.453,5.169,5.169,0,0,1,2.882-1.886l.216-.05a.164.164,0,0,0,.129-.16L19.5,2.588a.165.165,0,0,0-.122-.162.505.505,0,0,1-.084-.032C19.253,2.376,15.389.5,12.7.5h-.319C9.013.5,8.195.652,8.006.742a1.232,1.232,0,0,0-.7,1.343,1.24,1.24,0,0,1-.57,1.263,1.6,1.6,0,0,0-.478.593,1.259,1.259,0,0,0-.085.9,1.216,1.216,0,0,1-.366,1.31,1.491,1.491,0,0,0-.414,1.694.5.5,0,0,1-.481.647h0L1.641,8.482A1.2,1.2,0,0,0,.5,9.7c0,.855,1.074.894,1.086.894l9.531.02h.005a.322.322,0,0,1,.04,0,.5.5,0,0,1,.005,1,6.283,6.283,0,0,0-1.338.66c-1.407.812-1.542,1.388-1.3,2.055.134.371.571.428.819.428m0,.5a1.271,1.271,0,0,1-1.291-.765c-.373-1.049.1-1.831,1.527-2.656a4.786,4.786,0,0,1,1.542-.723h0l-9.535-.02A1.5,1.5,0,0,1,0,9.7,1.691,1.691,0,0,1,1.644,7.979l3.273.007a1.971,1.971,0,0,1,.568-2.219A.723.723,0,0,0,5.7,5a1.735,1.735,0,0,1,.1-1.25,2.082,2.082,0,0,1,.627-.789c.221-.175.473-.468.4-.738A1.733,1.733,0,0,1,7.79.291,20.038,20.038,0,0,1,12.38,0H12.7c2.84.007,6.813,1.945,6.813,1.945a.668.668,0,0,1,.486.65l-.058,6.631a.669.669,0,0,1-.516.643l-.216.05a4.694,4.694,0,0,0-2.6,1.707,2.6,2.6,0,0,1-.616.563c-2.249,1.46-3.99,1.657-5.807,2.869A1.646,1.646,0,0,1,9.341,15.259Z" transform="translate(0 0)" fill="#252525"/>
    <path id="Path_1" data-name="Path 1" d="M1.577.468.413.937,0,1.094.145.54.3,0l1.25.015c.231,0,.207.359.025.453Z" transform="translate(10.883 10.635)" fill="#252525"/>
    <path id="Path_2" data-name="Path 2" d="M3.537.5,0,.573.284.163C.284.065.413-.01.56,0L3.54.13c.3.023.294.351,0,.366Z" transform="translate(4.743 7.908)" fill="#252525"/>
    <path id="Path_3" data-name="Path 3" d="M2.242.456.058.584C-.041.593.016.163.016.163A.166.166,0,0,1,.205,0L2.248.13a.163.163,0,0,1-.007.326Z" transform="translate(6.105 5.089)" fill="#252525"/>
    <path id="Path_4" data-name="Path 4" d="M1.207.456.031.584C-.022.593.009.163.009.163c0-.1.047-.174.1-.162l1.1.129c.109.023.105.311,0,.326Z" transform="translate(7.101 2.311)" fill="#252525"/>
  </g>
</svg>
